<?xml version="1.0" encoding="UTF-8"?>
<svg version="1.1" xmlns="http://www.w3.org/2000/svg" width="1081" height="1081">
<path d="M0 0 C356.73 0 713.46 0 1081 0 C1081 356.73 1081 713.46 1081 1081 C724.27 1081 367.54 1081 0 1081 C0 724.27 0 367.54 0 0 Z " fill="#6BBFF8" transform="translate(0,0)"/>
<path d="M0 0 C0.72996654 0.00117803 1.45993307 0.00235605 2.21201981 0.00356977 C39.88929024 0.07308439 77.46714162 1.62843359 115.07881569 3.74122445 C137.69404113 5.00818491 160.29742351 5.87823077 182.94067383 6.45141602 C183.72013329 6.47127647 184.49959275 6.49113692 185.3026722 6.5115992 C193.13612423 6.71083471 200.96972737 6.90346166 208.80346132 7.09126695 C224.73692656 7.47340431 240.66911728 7.89940692 256.60072327 8.35227966 C257.33192906 8.37301045 258.06313485 8.39374123 258.81649839 8.41510022 C281.06192855 9.04810041 303.29498092 9.86530851 325.52659607 10.87294006 C326.7628173 10.92889414 327.99903852 10.98484821 329.272721 11.04249787 C353.92800666 12.16994027 378.57407422 13.48175012 403.22265625 14.74609375 C403.22265625 64.24609375 403.22265625 113.74609375 403.22265625 164.74609375 C226.67265625 164.74609375 50.12265625 164.74609375 -131.77734375 164.74609375 C-131.77734375 330.40609375 -131.77734375 496.06609375 -131.77734375 666.74609375 C-183.25734375 666.74609375 -234.73734375 666.74609375 -287.77734375 666.74609375 C-288.77734375 665.74609375 -288.77734375 665.74609375 -288.88345683 663.72145838 C-288.87450589 662.82133998 -288.86555496 661.92122158 -288.85633278 660.99382687 C-288.84456912 659.44158914 -288.84456912 659.44158914 -288.83256781 657.85799307 C-288.81866424 656.70690842 -288.80476068 655.55582378 -288.79043579 654.36985779 C-288.77974512 653.15738705 -288.76905446 651.94491632 -288.75803983 650.69570404 C-288.72717732 647.31309603 -288.69174785 643.93059005 -288.65443945 640.54805052 C-288.61533029 636.90366047 -288.58201552 633.25921701 -288.54798889 629.61477661 C-288.48021062 622.45525258 -288.40700388 615.29579362 -288.33200504 608.13634198 C-288.24445138 599.7597256 -288.16217158 591.38305989 -288.08008687 583.00638843 C-287.93288129 568.00332038 -287.78077029 553.00030597 -287.62597656 537.99731445 C-287.47680632 523.53901605 -287.33111722 509.08068838 -287.18945312 494.62231445 C-287.18079482 493.73868288 -287.17213651 492.8550513 -287.16321583 491.94464301 C-287.1502483 490.62121113 -287.1502483 490.62121113 -287.1370188 489.27104324 C-286.97489388 472.72847598 -286.80924778 456.18594545 -286.64210976 439.64342813 C-286.5919 434.6672547 -286.54232041 429.69107549 -286.4932735 424.71489047 C-286.16653283 391.56666239 -285.79876969 358.42410365 -285.05115449 325.28206873 C-285.0310005 324.38851348 -285.01084651 323.49495824 -284.99008179 322.57432556 C-284.97057075 321.71047414 -284.95105972 320.84662272 -284.93095744 319.95659399 C-284.70422092 309.73640586 -284.58824324 299.51588197 -284.51698303 289.29345894 C-284.49453494 286.09005289 -284.467762 282.88670127 -284.44030762 279.68333435 C-284.37307778 271.75594228 -284.31191365 263.8285069 -284.25128174 255.90106201 C-284.19906881 249.10011447 -284.14398159 242.29920068 -284.08546448 235.49830437 C-284.05248315 231.51131153 -284.02469916 227.52429495 -284.000691 223.53723806 C-283.97907846 221.51726078 -283.9427304 219.49734989 -283.88700098 217.47802585 C-283.7411035 211.63874745 -283.79809545 205.92249403 -284.20559717 200.099165 C-286.20685709 169.97337996 -277.93430434 152.26256225 -259.38452148 129.04272461 C-258.10024827 127.40833996 -256.81631596 125.77368738 -255.53270841 124.13877988 C-245.70451061 111.71754922 -235.27953722 99.89531315 -224.5234375 88.2734375 C-223.72913994 87.41079657 -222.93484238 86.54815565 -222.11647519 85.65937409 C-157.33752789 15.55585958 -91.32884871 -0.20956066 0 0 Z " fill="#EAF4CE" transform="translate(482.77734375,293.25390625)"/>
<path d="M0 0 C48.18 0 96.36 0 146 0 C147 1 147 1 147.1241985 3.58000571 C147.12362892 5.32463076 147.12362892 5.32463076 147.12304783 7.10450077 C147.12420167 7.75230174 147.12535552 8.4001027 147.12654433 9.067534 C147.12921729 11.26518624 147.1246833 13.46276703 147.12025452 15.66041565 C147.12069008 17.24107742 147.12156471 18.82173912 147.12284368 20.40240043 C147.12509157 24.76695298 147.12106337 29.13148124 147.11606562 33.49603069 C147.11176549 38.19476185 147.11320723 42.89349154 147.1139679 47.59222412 C147.11449341 55.74007558 147.11134375 63.88791906 147.10573006 72.03576851 C147.09761876 83.81633439 147.09500022 95.59689639 147.09374207 107.37746476 C147.09155096 126.48854315 147.0848893 145.59961728 147.07543945 164.71069336 C147.06626684 183.2803546 147.05918527 201.85001469 147.05493164 220.41967773 C147.05466892 221.56343432 147.05440619 222.7071909 147.05413551 223.88560677 C147.05283051 229.62323542 147.0515668 235.36086408 147.05032361 241.09849274 C147.03994918 288.73233227 147.0215099 336.36616394 147 384 C98.49 384 49.98 384 0 384 C0 257.28 0 130.56 0 0 Z " fill="#F0FCDB" transform="translate(421,566)"/>
<path d="M0 0 C1.36569981 -0.00305772 2.73139557 -0.00919632 4.09706962 -0.01812416 C7.82612818 -0.03368959 11.55376482 -0.00590174 15.28264236 0.02932227 C19.31249483 0.05967104 23.34227298 0.04931352 27.37220764 0.04400635 C34.3463642 0.04034335 41.32006084 0.06222665 48.29410172 0.10167122 C58.37719825 0.15866309 68.46007335 0.17680175 78.54331349 0.18558716 C94.90423555 0.20089157 111.26491273 0.24743255 127.6257019 0.31370544 C143.51468687 0.3780001 159.40360523 0.42752872 175.29269409 0.45726013 C176.76283556 0.46001873 176.76283556 0.46001873 178.26267685 0.46283305 C183.17972953 0.4719686 188.09678268 0.48081449 193.01383615 0.48951638 C233.77855581 0.56203369 274.54282231 0.69105221 315.30734253 0.84178162 C315.30734253 42.09178162 315.30734253 83.34178162 315.30734253 125.84178162 C269.23727438 125.86408294 223.16721157 125.88244486 177.09713952 125.89284695 C171.58232762 125.89409675 166.06751574 125.89539115 160.55270386 125.89671326 C158.90675975 125.89710672 158.90675975 125.89710672 157.22756425 125.89750814 C141.91001345 125.90126181 126.59246528 125.90740378 111.27491619 125.91551594 C84.8521316 125.92950679 58.42934979 125.93872182 32.00656128 125.93943787 C30.97740701 125.93947644 29.94825274 125.93951501 28.88791198 125.93955475 C-39.64380448 125.94127321 -108.16556613 125.6855665 -176.69265747 124.84178162 C-174.08698125 122.20173 -171.50718048 119.83507346 -168.52468872 117.62693787 C-167.32211426 116.73180481 -167.32211426 116.73180481 -166.09524536 115.81858826 C-165.24051636 115.18686707 -164.38578735 114.55514587 -163.50515747 113.90428162 C-161.68696295 112.5507678 -159.86926216 111.19659053 -158.05203247 109.84178162 C-157.145177 109.16631287 -156.23832153 108.49084412 -155.3039856 107.79490662 C-151.60037371 105.02481546 -147.92461169 102.21938713 -144.25515747 99.40428162 C-143.57759399 98.88495056 -142.90003052 98.36561951 -142.20193481 97.83055115 C-140.7889238 96.74749516 -139.3760026 95.66432199 -137.96316528 94.58103943 C-126.94235504 86.13886178 -115.90090292 77.72473632 -104.78128052 69.41307068 C-99.30992163 65.31795158 -93.87452637 61.17658692 -88.44265747 57.02928162 C-81.38485105 51.64055104 -74.30291452 46.2861118 -67.19265747 40.96678162 C-60.84015432 36.21322441 -54.51987639 31.42471228 -48.23953247 26.57615662 C-43.5048104 22.9223699 -38.75641823 19.28652438 -34.00515747 15.65428162 C-33.13769897 14.9885614 -32.27024048 14.32284119 -31.37649536 13.63694763 C-30.52821167 12.98911316 -29.67992798 12.34127869 -28.80593872 11.67381287 C-28.06126343 11.10380554 -27.31658813 10.53379822 -26.54934692 9.94651794 C-25.6066394 9.25195496 -24.66393188 8.55739197 -23.69265747 7.84178162 C-23.03757741 7.27840668 -22.38249735 6.71503175 -21.70756638 6.13458484 C-14.58105885 0.42847316 -8.94574285 -0.14580628 0 0 Z " fill="#F0FCDB" transform="translate(570.6926574707031,121.15821838378906)"/>
</svg>
