<?xml version="1.0" encoding="UTF-8"?>
<svg version="1.1" xmlns="http://www.w3.org/2000/svg" width="287" height="52">
<path d="M0 0 C2.97 0 5.94 0 9 0 C9.33 11.55 9.66 23.1 10 35 C13.465 30.05 13.465 30.05 17 25 C22.50649351 18.24675325 22.50649351 18.24675325 25 17 C26.54023996 16.93049459 28.08334988 16.91547643 29.625 16.9375 C30.85089844 16.95103516 30.85089844 16.95103516 32.1015625 16.96484375 C32.72804688 16.97644531 33.35453125 16.98804687 34 17 C30.40945767 20.88975419 26.26101118 23.89732195 22 27 C23.2375 27.2475 24.475 27.495 25.75 27.75 C29.52401107 28.68515319 31.55495822 29.87034653 34 33 C35.6498007 36.29960141 35.38258361 39.99127884 35.5625 43.625 C35.60568359 44.42679688 35.64886719 45.22859375 35.69335938 46.0546875 C35.79951457 48.0362511 35.90026855 50.01810271 36 52 C32.625 52.125 32.625 52.125 29 52 C26.18086854 49.18086854 26.62094468 46.34379971 26.5 42.5625 C26.37979563 36.99685789 26.37979563 36.99685789 24 32 C21.5720937 31.46308735 21.5720937 31.46308735 19 32 C13.80134923 35.82345658 11.2399415 40.79262553 10.09375 47.01953125 C9.87058222 49.21296651 9.87058222 49.21296651 11 52 C9.72125 52.061875 8.4425 52.12375 7.125 52.1875 C6.04605469 52.23970703 6.04605469 52.23970703 4.9453125 52.29296875 C4.30335938 52.19628906 3.66140625 52.09960938 3 52 C0.85762657 48.78643985 0.7383475 47.86952936 0.68115234 44.16137695 C0.66128265 43.1805867 0.64141296 42.19979645 0.62094116 41.18928528 C0.60938995 40.13295395 0.59783875 39.07662262 0.5859375 37.98828125 C0.56657135 36.90491989 0.5472052 35.82155853 0.5272522 34.70536804 C0.46741656 31.24115907 0.4210547 27.77691695 0.375 24.3125 C0.33682393 21.96548021 0.29777242 19.61847448 0.2578125 17.27148438 C0.16171158 11.51443699 0.07769498 5.75732402 0 0 Z " fill="#EBF5CE" transform="translate(251,0)"/>
<path d="M0 0 C2.8125 -0.3125 2.8125 -0.3125 6 0 C9.06870133 2.96641129 9.25815562 6.10307639 9.4375 10.1875 C9.31444328 15.26700788 8.03353666 19.10205319 5.95703125 23.6953125 C4.66033092 26.8179786 4.29161782 29.64639511 4 33 C7.92280962 33.06102148 11.52784696 33.02547412 14.828125 30.7265625 C18.97280176 26.26789508 21.22011939 21.01884326 22 15 C21.61845687 10.21200778 20.22812994 6.22870619 18 2 C21.22143276 -0.14762184 22.2595467 -0.561068 26 0 C29.09291857 2.65107306 29.6535384 5.821429 29.9921875 9.796875 C30.02027802 17.71840146 27.19320759 24.07441698 22 30 C17.03014764 34.54012828 12.71220487 36.68581196 5.9453125 36.50390625 C3.51884656 35.87536387 2.57465194 34.9188124 1 33 C0.67 32.34 0.34 31.68 0 31 C-1.175625 31.9590625 -1.175625 31.9590625 -2.375 32.9375 C-5.81449764 35.63996243 -7.62513418 36.21035755 -11.9375 36.375 C-12.81277344 36.42398438 -13.68804687 36.47296875 -14.58984375 36.5234375 C-17 36 -17 36 -18.78515625 34.05859375 C-20.43696041 29.89987137 -20.45165405 26.12496751 -20.5 21.6875 C-20.58722194 13.79391432 -21.50781029 7.73828457 -26 1 C-24.37536158 0.94604522 -22.75021459 0.90722805 -21.125 0.875 C-20.22007813 0.85179688 -19.31515625 0.82859375 -18.3828125 0.8046875 C-16 1 -16 1 -14 3 C-11.84813045 10.24840269 -13.57379039 17.70663651 -14.96948242 24.9296875 C-15.98597074 29.05133077 -15.98597074 29.05133077 -15 33 C-9.72107745 32.58596686 -6.64298863 31.93836608 -3 28 C0.73948934 22.01192883 2.09376024 16.0049813 1 9 C0.0436126 7.30792999 -0.94410931 5.63183107 -2 4 C-1.1875 1.6875 -1.1875 1.6875 0 0 Z " fill="#EBF5CE" transform="translate(111,16)"/>
<path d="M0 0 C4.10524693 2.3758382 5.99602824 4.73808472 7.5 9.25 C7.64939774 11.16765594 7.74810283 13.08946522 7.81640625 15.01171875 C7.85830078 16.12998047 7.90019531 17.24824219 7.94335938 18.40039062 C7.98267578 19.56763672 8.02199219 20.73488281 8.0625 21.9375 C8.10568359 23.11634766 8.14886719 24.29519531 8.19335938 25.50976562 C8.29951176 28.42305883 8.40156242 31.33643757 8.5 34.25 C5.125 34.375 5.125 34.375 1.5 34.25 C-1.0654594 31.6845406 -1.04046087 29.77313332 -1.5 26.25 C-2.056875 27.013125 -2.61375 27.77625 -3.1875 28.5625 C-6.25872506 32.13176155 -8.30746677 33.97882696 -13.08984375 34.5703125 C-17.43717483 34.74537281 -20.64126956 34.645016 -24.625 32.8125 C-27.34020177 29.10172425 -27.87227169 25.80438766 -27.5 21.25 C-25.68660942 16.88137723 -23.43203844 14.94559113 -19.3125 12.875 C-14.71293474 11.06098004 -10.39827859 10.39769952 -5.5 11.25 C-2.9375 12.75 -2.9375 12.75 -1.5 14.25 C-1.1816485 10.1910184 -1.10282414 7.9025032 -3.25 4.375 C-5.95889922 1.74014478 -5.95889922 1.74014478 -9.5 1.25 C-14.56021086 3.27408434 -16.13374456 6.6051282 -18.5 11.25 C-23.16990291 9.8131068 -23.16990291 9.8131068 -24.5625 7.4375 C-24.46474011 4.01590389 -22.86768964 2.61768964 -20.5 0.25 C-14.01421325 -2.89992678 -6.55845537 -3.07920086 0 0 Z M-17.875 16.25 C-20.12175128 20.39784852 -20.09566305 22.55915346 -19.5 27.25 C-18.05985074 29.94138543 -18.05985074 29.94138543 -15.5 31.25 C-11.49596219 31.33519229 -9.8874825 30.57440395 -6.8125 28 C-4.69102674 25.47716694 -2.91081814 23.22839386 -1.5 20.25 C-1.83 19.26 -2.16 18.27 -2.5 17.25 C-2.5 17.91 -2.5 18.57 -2.5 19.25 C-3.82 19.58 -5.14 19.91 -6.5 20.25 C-6.809375 19.445625 -7.11875 18.64125 -7.4375 17.8125 C-8.26335345 15.35919595 -8.26335345 15.35919595 -9.5 14.25 C-13.31145682 13.74180576 -14.88440761 13.73160641 -17.875 16.25 Z " fill="#EBF5CE" transform="translate(206.5,17.75)"/>
<path d="M0 0 C1.0370105 -0.00006042 1.0370105 -0.00006042 2.0949707 -0.00012207 C3.55071141 0.00521844 5.00645282 0.02273887 6.46191406 0.05175781 C8.6812415 0.09363192 10.89753129 0.09282168 13.1171875 0.0859375 C25.42349582 0.17692556 25.42349582 0.17692556 29.6875 3.59375 C30.1875 6.65625 30.1875 6.65625 29.6875 9.59375 C26.6875 11.59375 26.6875 11.59375 22.6875 11.59375 C22.13411458 9.8359375 21.58072917 8.078125 21.02734375 6.3203125 C18.9034213 3.58336287 15.94184113 3.44355794 12.6875 2.59375 C12.80518977 8.92933456 12.93001943 15.2647496 13.05981445 21.60009766 C13.10312691 23.75533865 13.14480463 25.91061314 13.18481445 28.06591797 C13.24260618 31.16383967 13.30627523 34.26159334 13.37109375 37.359375 C13.38780624 38.32304993 13.40451874 39.28672485 13.42173767 40.27960205 C13.44168289 41.18023376 13.46162811 42.08086548 13.48217773 43.00878906 C13.50549416 44.19459564 13.50549416 44.19459564 13.52928162 45.40435791 C13.68607453 47.57402459 14.09365681 49.50511533 14.6875 51.59375 C13.20843108 51.62064216 11.72922517 51.64009621 10.25 51.65625 C9.01443359 51.67365234 9.01443359 51.67365234 7.75390625 51.69140625 C5.6875 51.59375 5.6875 51.59375 4.6875 50.59375 C4.59438111 49.08956261 4.57003972 47.58103644 4.57397461 46.07397461 C4.57405014 45.11305405 4.57412567 44.15213348 4.57420349 43.16209412 C4.57936478 42.117314 4.58452606 41.07253387 4.58984375 39.99609375 C4.5912587 38.93209854 4.59267365 37.86810333 4.59413147 36.77186584 C4.59974936 33.35829917 4.61230489 29.944797 4.625 26.53125 C4.63001269 24.22330824 4.634576 21.91536545 4.63867188 19.60742188 C4.6497246 13.93617574 4.66648013 8.26496747 4.6875 2.59375 C3.36998306 3.01185155 2.05853241 3.44910705 0.75 3.89453125 C0.01910156 4.13598877 -0.71179688 4.37744629 -1.46484375 4.6262207 C-3.70169223 5.52036941 -3.70169223 5.52036941 -4.3125 8.78125 C-4.3125 9.709375 -4.3125 10.6375 -4.3125 11.59375 C-7.1875 11.40625 -7.1875 11.40625 -10.3125 10.59375 C-11.6875 8.03125 -11.6875 8.03125 -12.3125 5.59375 C-8.39681361 0.87321412 -6.08883913 -0.0336569 0 0 Z " fill="#EBF5CE" transform="translate(154.3125,0.40625)"/>
<path d="M0 0 C1.9375 1.25 1.9375 1.25 3 3 C3.3125 6.5625 3.3125 6.5625 3 10 C1 12 1 12 -2.125 12.125 C-3.07375 12.08375 -4.0225 12.0425 -5 12 C-4.9175 10.9275 -4.835 9.855 -4.75 8.75 C-4.66949212 5.02611659 -4.66949212 5.02611659 -6.6875 2.625 C-9.31986889 0.77522727 -10.78843044 0.15293188 -14 0 C-17.24236568 0.85771342 -17.24236568 0.85771342 -20 2 C-20 4.31 -20 6.62 -20 9 C-15.63230014 10.69854995 -11.33425893 12.20367672 -6.8125 13.4375 C-2.79957526 14.64323239 0.23989298 15.68787158 3 19 C3.625 22.4375 3.625 22.4375 3 26 C0.09119242 29.73989546 -2.53991949 31.56595145 -7 33 C-19.94146217 34.30171432 -19.94146217 34.30171432 -24.75 31.1875 C-27.26900649 28.73846591 -28.86885243 27.04918059 -29.3125 23.5 C-29 21 -29 21 -27.875 19.1875 C-25.22464043 17.50893894 -23.06753576 17.79549762 -20 18 C-20.061875 19.258125 -20.12375 20.51625 -20.1875 21.8125 C-20.17089884 25.02241325 -20.17089884 25.02241325 -18.9375 27.9375 C-15.88826749 29.60965977 -13.46758942 29.94021398 -10 30 C-7.07139596 28.20954506 -7.07139596 28.20954506 -5 26 C-5.495 23.525 -5.495 23.525 -6 21 C-6.55461914 20.83918945 -7.10923828 20.67837891 -7.68066406 20.51269531 C-10.20789333 19.77175524 -12.72877939 19.0111232 -15.25 18.25 C-16.12269531 17.99734375 -16.99539062 17.7446875 -17.89453125 17.484375 C-26.29620966 14.91897701 -26.29620966 14.91897701 -29 11 C-29 7.1966369 -28.6177212 4.88951853 -26.4375 1.75 C-18.1584986 -4.19389844 -8.92393453 -4.81892464 0 0 Z " fill="#EBF5CE" transform="translate(246,19)"/>
<path d="M0 0 C4.75047352 -0.12391876 9.49999961 -0.21448561 14.25170898 -0.2746582 C15.86678461 -0.29974959 17.48174726 -0.33383126 19.09643555 -0.37719727 C21.42264706 -0.43809286 23.74735359 -0.46626124 26.07421875 -0.48828125 C27.15107185 -0.52699089 27.15107185 -0.52699089 28.24967957 -0.56648254 C32.31718551 -0.56874045 33.83775426 -0.13706717 36.99536133 2.53051758 C37.65689209 3.34544678 38.31842285 4.16037598 39 5 C38.375 7.4375 38.375 7.4375 37 10 C33.875 10.8125 33.875 10.8125 31 11 C30.731875 9.865625 30.46375 8.73125 30.1875 7.5625 C29.795625 6.386875 29.40375 5.21125 29 4 C26.40742331 3.13580777 24.65962293 2.82419068 21.98828125 2.68359375 C20.96408081 2.62643188 20.96408081 2.62643188 19.91918945 2.56811523 C19.05898193 2.52501221 18.19877441 2.48190918 17.3125 2.4375 C14.569375 2.293125 11.82625 2.14875 9 2 C9 9.59 9 17.18 9 25 C15.93 25 22.86 25 30 25 C30 25.66 30 26.32 30 27 C23.07 27 16.14 27 9 27 C9.144375 30.403125 9.28875 33.80625 9.4375 37.3125 C9.48060303 38.38153564 9.52370605 39.45057129 9.56811523 40.55200195 C9.60622314 41.39722412 9.64433105 42.24244629 9.68359375 43.11328125 C9.72025146 43.97735596 9.75690918 44.84143066 9.79467773 45.73168945 C9.92747354 48.1647826 9.92747354 48.1647826 11 51 C9.52093108 51.02689216 8.04172517 51.04634621 6.5625 51.0625 C5.73878906 51.07410156 4.91507812 51.08570313 4.06640625 51.09765625 C2 51 2 51 1 50 C0.87736612 48.43551617 0.82220478 46.86567228 0.79467773 45.29663086 C0.77473251 44.29566879 0.75478729 43.29470673 0.73423767 42.26341248 C0.71752518 41.1748848 0.70081268 40.08635712 0.68359375 38.96484375 C0.66281265 37.85645645 0.64203156 36.74806915 0.62062073 35.60609436 C0.55500377 32.04996192 0.49618404 28.49375297 0.4375 24.9375 C0.39432632 22.53319507 0.35071242 20.12889801 0.30664062 17.72460938 C0.19931008 11.81648815 0.09756669 5.90829009 0 0 Z " fill="#EBF5CE" transform="translate(0,1)"/>
<path d="M0 0 C4.64138755 2.34575526 7.17866524 5.51167135 8.99609375 10.3515625 C10.45776767 16.82468986 10.42599135 23.33880907 6.88671875 29.18359375 C4.5916028 32.09499084 2.43272401 34.02978163 -1.00390625 35.3515625 C-7.62174123 36.00992593 -14.46162517 36.47274587 -20.00390625 32.3515625 C-25.40469258 26.51287458 -25.33663798 21.45187831 -25.296875 13.76171875 C-24.91707562 9.34085393 -24.10596048 7.45361673 -21.00390625 4.3515625 C-20.34390625 4.3515625 -19.68390625 4.3515625 -19.00390625 4.3515625 C-17.85620018 6.64697464 -17.67972898 8.41587351 -17.390625 10.96484375 C-17.27654297 11.88330078 -17.16246094 12.80175781 -17.04492188 13.74804688 C-16.81081141 15.67913484 -16.58671027 17.61146477 -16.37304688 19.54492188 C-15.69770595 24.82586647 -15.17769448 28.63892316 -11.00390625 32.3515625 C-7.50163873 32.78041158 -5.34868786 32.4664897 -2.00390625 31.3515625 C0.93724162 24.26713092 1.78197908 16.81259453 -0.00390625 9.3515625 C-1.40889037 5.86449565 -1.40889037 5.86449565 -3.00390625 3.3515625 C-4.65390625 3.3515625 -6.30390625 3.3515625 -8.00390625 3.3515625 C-8.99390625 6.3215625 -9.98390625 9.2915625 -11.00390625 12.3515625 C-15.87890625 10.4765625 -15.87890625 10.4765625 -17.00390625 9.3515625 C-17.46971032 3.99481573 -17.46971032 3.99481573 -15.69140625 1.5390625 C-11.23981975 -1.59353541 -5.0639636 -1.6386315 0 0 Z " fill="#EBF5CE" transform="translate(78.00390625,16.6484375)"/>
<path d="M0 0 C2.97 0 5.94 0 9 0 C9.02505615 1.43311523 9.0501123 2.86623047 9.07592773 4.34277344 C9.17007369 9.65796914 9.27027703 14.97303635 9.37231445 20.28808594 C9.41563606 22.58883662 9.45731313 24.88961888 9.49731445 27.19042969 C9.55508395 30.49684161 9.61875949 33.803095 9.68359375 37.109375 C9.70030624 38.13867126 9.71701874 39.16796753 9.73423767 40.22845459 C9.75418289 41.18914856 9.77412811 42.14984253 9.79467773 43.13964844 C9.81022202 43.98348083 9.8257663 44.82731323 9.84178162 45.69671631 C9.99407571 47.91375644 10.38782088 49.86850379 11 52 C4.84765625 52.09765625 4.84765625 52.09765625 3 52 C1.39155108 50.39155108 1.8428931 48.6463484 1.81054688 46.42016602 C1.79382935 45.44568008 1.77711182 44.47119415 1.7598877 43.46717834 C1.74631226 42.40679855 1.73273682 41.34641876 1.71875 40.25390625 C1.70034058 39.17245834 1.68193115 38.09101044 1.66296387 36.97679138 C1.60400158 33.50541812 1.55128045 30.03399476 1.5 26.5625 C1.43251852 22.00119355 1.35882547 17.44005091 1.28125 12.87890625 C1.26088684 11.29137291 1.26088684 11.29137291 1.2401123 9.67176819 C1.22339478 8.6941301 1.20667725 7.716492 1.18945312 6.70922852 C1.17066101 5.41469505 1.17066101 5.41469505 1.15148926 4.0940094 C1.12959536 1.94126572 1.12959536 1.94126572 0 0 Z " fill="#EBF5CE" transform="translate(40,0)"/>
</svg>
